<?xml version="1.0" encoding="utf-8"?>
<!-- Generator: Adobe Illustrator 21.0.0, SVG Export Plug-In . SVG Version: 6.00 Build 0)  -->
<svg version="1.1" xmlns="http://www.w3.org/2000/svg" xmlns:xlink="http://www.w3.org/1999/xlink" x="0px" y="0px"
	 viewBox="0 0 512 512" style="enable-background:new 0 0 512 512;" xml:space="preserve">
<style type="text/css">
	.st0{display:none;}
	.st1{opacity:0.69;}
	.st2{fill:#C2000B;}
	.st3{fill:#01A0C6;}
</style>
<g id="Layer_1" class="st0">
	
		<image style="display:inline;overflow:visible;" width="325" height="325" xlink:href="../Icons/Social Media Pack/Slike/fb_icon_325x325.png"  transform="matrix(1.5754 0 0 1.5754 0 0)">
	</image>
</g>
<g id="Layer_3">
	<g class="st1">
		<path class="st2" d="M444.4,21H27.6C12.9,21,1,32.9,1,47.6v416.8C1,479.1,12.9,491,27.6,491h416.8c14.7,0,26.6-11.9,26.6-26.6
			V47.6C471,32.9,459.1,21,444.4,21z M424,468H48c-13.3,0-24-10.8-24-24V68c0-13.3,10.8-24,24-24h376c13.3,0,24,10.8,24,24v376
			C448,457.2,437.2,468,424,468z"/>
		<path class="st2" d="M253,469.2V312h-62v-72h62v-68.5c0,0,1.2-61.8,68.9-76.5H397v65h-40.4c0,0-30-1.2-30.6,30.6
			s-1.2,48.4-1.2,48.4l72.4,1.2L386.8,311H326v157L253,469.2z"/>
	</g>
	<g class="st1">
		<path class="st3" d="M485.4,21H68.6C53.9,21,42,32.9,42,47.6v416.8c0,14.7,11.9,26.6,26.6,26.6h416.8c14.7,0,26.6-11.9,26.6-26.6
			V47.6C512,32.9,500.1,21,485.4,21z M465,468H89c-13.3,0-24-10.8-24-24V68c0-13.3,10.8-24,24-24h376c13.3,0,24,10.8,24,24v376
			C489,457.2,478.2,468,465,468z"/>
		<path class="st3" d="M294,469.2V312h-62v-72h62v-68.5c0,0,1.2-61.8,68.9-76.5H438v65h-40.4c0,0-30-1.2-30.6,30.6
			s-1.2,48.4-1.2,48.4l72.5,1.2L427.9,311H367v157L294,469.2z"/>
	</g>
</g>
<g id="Layer_4">
</g>
<g id="Layer_2">
	<g>
		<path d="M466.4,21H49.6C34.9,21,23,32.9,23,47.6v416.8c0,14.7,11.9,26.6,26.6,26.6h416.8c14.7,0,26.6-11.9,26.6-26.6V47.6
			C493,32.9,481.1,21,466.4,21z M446,468H70c-13.3,0-24-10.8-24-24V68c0-13.3,10.8-24,24-24h376c13.3,0,24,10.8,24,24v376
			C470,457.2,459.2,468,446,468z"/>
		<path d="M275,469.2V312h-62v-72h62v-68.5c0,0,1.2-61.8,68.9-76.5H419v65h-40.4c0,0-30-1.2-30.6,30.6s-1.2,48.4-1.2,48.4l72.4,1.2
			L408.7,311H348v157L275,469.2z"/>
	</g>
</g>
</svg>
